<mxfile host="app.diagrams.net" modified="2023-07-14T13:17:55.662Z" agent="Mozilla/5.0 (Windows NT 10.0; Win64; x64) AppleWebKit/537.36 (KHTML, like Gecko) Chrome/114.0.0.0 Safari/537.36 Edg/114.0.1823.58" etag="5PJ1QelufqHKTIXpWjdI" version="21.6.2" type="device">
  <diagram name="Page-1" id="1tHGm-zGruhdIwjACkBX">
    <mxGraphModel dx="1117" dy="527" grid="1" gridSize="10" guides="1" tooltips="1" connect="1" arrows="1" fold="1" page="1" pageScale="1" pageWidth="1100" pageHeight="850" math="0" shadow="0">
      <root>
        <mxCell id="0" />
        <mxCell id="1" parent="0" />
        <mxCell id="ymcTAZir9kq8jkwgSwDo-1" value="Exercise2" style="swimlane;whiteSpace=wrap;html=1;" vertex="1" parent="1">
          <mxGeometry x="40" y="40" width="1000" height="640" as="geometry" />
        </mxCell>
        <mxCell id="ymcTAZir9kq8jkwgSwDo-2" value="Shape" style="swimlane;fontStyle=1;align=center;verticalAlign=top;childLayout=stackLayout;horizontal=1;startSize=26;horizontalStack=0;resizeParent=1;resizeParentMax=0;resizeLast=0;collapsible=1;marginBottom=0;whiteSpace=wrap;html=1;fontSize=12;" vertex="1" parent="ymcTAZir9kq8jkwgSwDo-1">
          <mxGeometry x="430" y="70" width="180" height="240" as="geometry" />
        </mxCell>
        <mxCell id="ymcTAZir9kq8jkwgSwDo-3" value="- width: double&lt;br&gt;- height: double" style="text;strokeColor=none;fillColor=none;align=left;verticalAlign=top;spacingLeft=4;spacingRight=4;overflow=hidden;rotatable=0;points=[[0,0.5],[1,0.5]];portConstraint=eastwest;whiteSpace=wrap;html=1;" vertex="1" parent="ymcTAZir9kq8jkwgSwDo-2">
          <mxGeometry y="26" width="180" height="34" as="geometry" />
        </mxCell>
        <mxCell id="ymcTAZir9kq8jkwgSwDo-4" value="" style="line;strokeWidth=1;fillColor=none;align=left;verticalAlign=middle;spacingTop=-1;spacingLeft=3;spacingRight=3;rotatable=0;labelPosition=right;points=[];portConstraint=eastwest;strokeColor=inherit;" vertex="1" parent="ymcTAZir9kq8jkwgSwDo-2">
          <mxGeometry y="60" width="180" height="8" as="geometry" />
        </mxCell>
        <mxCell id="ymcTAZir9kq8jkwgSwDo-5" value="+ Shape(): Shape&lt;br&gt;+ Shape(double width, double height): Shape&lt;br&gt;&lt;br&gt;+ getWidth(): double&lt;br&gt;+ setWidth(double width): void&lt;br&gt;+ getHeight(): double&lt;br&gt;+ setHeight(double width): void&lt;br&gt;&lt;br&gt;+ calculateArea(): void&lt;br&gt;+ calculatePerimeter(): void" style="text;strokeColor=none;fillColor=none;align=left;verticalAlign=top;spacingLeft=4;spacingRight=4;overflow=hidden;rotatable=0;points=[[0,0.5],[1,0.5]];portConstraint=eastwest;whiteSpace=wrap;html=1;" vertex="1" parent="ymcTAZir9kq8jkwgSwDo-2">
          <mxGeometry y="68" width="180" height="172" as="geometry" />
        </mxCell>
        <mxCell id="ymcTAZir9kq8jkwgSwDo-6" value="Square" style="swimlane;fontStyle=1;align=center;verticalAlign=top;childLayout=stackLayout;horizontal=1;startSize=26;horizontalStack=0;resizeParent=1;resizeParentMax=0;resizeLast=0;collapsible=1;marginBottom=0;whiteSpace=wrap;html=1;fontSize=12;" vertex="1" parent="ymcTAZir9kq8jkwgSwDo-1">
          <mxGeometry x="720" y="360" width="180" height="240" as="geometry" />
        </mxCell>
        <mxCell id="ymcTAZir9kq8jkwgSwDo-7" value="- width: double&lt;br&gt;- height: double" style="text;strokeColor=none;fillColor=none;align=left;verticalAlign=top;spacingLeft=4;spacingRight=4;overflow=hidden;rotatable=0;points=[[0,0.5],[1,0.5]];portConstraint=eastwest;whiteSpace=wrap;html=1;" vertex="1" parent="ymcTAZir9kq8jkwgSwDo-6">
          <mxGeometry y="26" width="180" height="34" as="geometry" />
        </mxCell>
        <mxCell id="ymcTAZir9kq8jkwgSwDo-8" value="" style="line;strokeWidth=1;fillColor=none;align=left;verticalAlign=middle;spacingTop=-1;spacingLeft=3;spacingRight=3;rotatable=0;labelPosition=right;points=[];portConstraint=eastwest;strokeColor=inherit;" vertex="1" parent="ymcTAZir9kq8jkwgSwDo-6">
          <mxGeometry y="60" width="180" height="8" as="geometry" />
        </mxCell>
        <mxCell id="ymcTAZir9kq8jkwgSwDo-9" value="+ Square(): Square&lt;br&gt;+ Square(double width, double height): Square&lt;br&gt;&lt;br&gt;+ getWidth(): double&lt;br&gt;+ setWidth(double width): void&lt;br&gt;+ getHeight(): double&lt;br&gt;+ setHeight(double width): void&lt;br&gt;&lt;br&gt;+ calculateArea(): void&lt;br&gt;+ calculatePerimeter(): void" style="text;strokeColor=none;fillColor=none;align=left;verticalAlign=top;spacingLeft=4;spacingRight=4;overflow=hidden;rotatable=0;points=[[0,0.5],[1,0.5]];portConstraint=eastwest;whiteSpace=wrap;html=1;" vertex="1" parent="ymcTAZir9kq8jkwgSwDo-6">
          <mxGeometry y="68" width="180" height="172" as="geometry" />
        </mxCell>
        <mxCell id="ymcTAZir9kq8jkwgSwDo-10" value="Rectangle" style="swimlane;fontStyle=1;align=center;verticalAlign=top;childLayout=stackLayout;horizontal=1;startSize=26;horizontalStack=0;resizeParent=1;resizeParentMax=0;resizeLast=0;collapsible=1;marginBottom=0;whiteSpace=wrap;html=1;fontSize=12;" vertex="1" parent="ymcTAZir9kq8jkwgSwDo-1">
          <mxGeometry x="140" y="360" width="180" height="240" as="geometry" />
        </mxCell>
        <mxCell id="ymcTAZir9kq8jkwgSwDo-11" value="- width: double&lt;br&gt;- height: double" style="text;strokeColor=none;fillColor=none;align=left;verticalAlign=top;spacingLeft=4;spacingRight=4;overflow=hidden;rotatable=0;points=[[0,0.5],[1,0.5]];portConstraint=eastwest;whiteSpace=wrap;html=1;" vertex="1" parent="ymcTAZir9kq8jkwgSwDo-10">
          <mxGeometry y="26" width="180" height="34" as="geometry" />
        </mxCell>
        <mxCell id="ymcTAZir9kq8jkwgSwDo-12" value="" style="line;strokeWidth=1;fillColor=none;align=left;verticalAlign=middle;spacingTop=-1;spacingLeft=3;spacingRight=3;rotatable=0;labelPosition=right;points=[];portConstraint=eastwest;strokeColor=inherit;" vertex="1" parent="ymcTAZir9kq8jkwgSwDo-10">
          <mxGeometry y="60" width="180" height="8" as="geometry" />
        </mxCell>
        <mxCell id="ymcTAZir9kq8jkwgSwDo-13" value="+ Rectangle(): Rectangle&lt;br&gt;+ Rectangle(double width, double height): Rectangle&lt;br&gt;&lt;br&gt;+ getWidth(): double&lt;br&gt;+ setWidth(double width): void&lt;br&gt;+ getHeight(): double&lt;br&gt;+ setHeight(double width): void&lt;br&gt;&lt;br&gt;+ calculateArea(): void&lt;br&gt;+ calculatePerimeter(): void" style="text;strokeColor=none;fillColor=none;align=left;verticalAlign=top;spacingLeft=4;spacingRight=4;overflow=hidden;rotatable=0;points=[[0,0.5],[1,0.5]];portConstraint=eastwest;whiteSpace=wrap;html=1;" vertex="1" parent="ymcTAZir9kq8jkwgSwDo-10">
          <mxGeometry y="68" width="180" height="172" as="geometry" />
        </mxCell>
        <mxCell id="ymcTAZir9kq8jkwgSwDo-14" value="Extends" style="endArrow=block;endSize=16;endFill=0;html=1;rounded=0;exitX=0;exitY=0.5;exitDx=0;exitDy=0;entryX=0.5;entryY=0;entryDx=0;entryDy=0;" edge="1" parent="ymcTAZir9kq8jkwgSwDo-1" source="ymcTAZir9kq8jkwgSwDo-5" target="ymcTAZir9kq8jkwgSwDo-10">
          <mxGeometry width="160" relative="1" as="geometry">
            <mxPoint x="340" y="340" as="sourcePoint" />
            <mxPoint x="500" y="340" as="targetPoint" />
          </mxGeometry>
        </mxCell>
        <mxCell id="ymcTAZir9kq8jkwgSwDo-15" value="Extends" style="endArrow=block;endSize=16;endFill=0;html=1;rounded=0;exitX=1;exitY=0.5;exitDx=0;exitDy=0;entryX=0.5;entryY=0;entryDx=0;entryDy=0;" edge="1" parent="ymcTAZir9kq8jkwgSwDo-1" source="ymcTAZir9kq8jkwgSwDo-5" target="ymcTAZir9kq8jkwgSwDo-6">
          <mxGeometry width="160" relative="1" as="geometry">
            <mxPoint x="440" y="234" as="sourcePoint" />
            <mxPoint x="240" y="370" as="targetPoint" />
          </mxGeometry>
        </mxCell>
      </root>
    </mxGraphModel>
  </diagram>
</mxfile>
